{
  "accessors": [
    {
      "bufferView": 2,
      "componentType": 5126,
      "count": 65533,
      "max": [
        17.847570419311523,
        13.540510177612305,
        12.98777961730957
      ],
      "min": [
        -11.484626770019531,
        -6.441921710968018,
        -0.011929044499993324
      ],
      "type": "VEC3"
    },
    {
      "bufferView": 2,
      "byteOffset": 786396,
      "componentType": 5126,
      "count": 65533,
      "max": [
        0.9998881816864014,
        0.9999586343765259,
        0.999995231628418
      ],
      "min": [
        -0.9999907612800598,
        -0.9999922513961792,
        -0.9999968409538269
      ],
      "type": "VEC3"
    },
    {
      "bufferView": 1,
      "componentType": 5126,
      "count": 65533,
      "max": [
        0.99935382604599,
        0.9821670055389404
      ],
      "min": [
        0.0005865395069122314,
        0.0005891919136047363
      ],
      "type": "VEC2"
    },
    {
      "bufferView": 0,
      "componentType": 5125,
      "count": 219915,
      "type": "SCALAR"
    },
    {
      "bufferView": 2,
      "byteOffset": 1572792,
      "componentType": 5126,
      "count": 65533,
      "max": [
        17.832721710205078,
        12.998581886291504,
        13.031259536743164
      ],
      "min": [
        -11.245221138000488,
        -6.0232133865356445,
        0.7959003448486328
      ],
      "type": "VEC3"
    },
    {
      "bufferView": 2,
      "byteOffset": 2359188,
      "componentType": 5126,
      "count": 65533,
      "max": [
        0.9999951124191284,
        0.9999926686286926,
        0.9999334812164307
      ],
      "min": [
        -0.9999948740005493,
        -0.9999917149543762,
        -0.9999645948410034
      ],
      "type": "VEC3"
    },
    {
      "bufferView": 1,
      "byteOffset": 524264,
      "componentType": 5126,
      "count": 65533,
      "max": [
        0.9993888735771179,
        0.9971753358840942
      ],
      "min": [
        0.0005867481231689453,
        0.0005867332220077515
      ],
      "type": "VEC2"
    },
    {
      "bufferView": 0,
      "byteOffset": 879660,
      "componentType": 5125,
      "count": 155679,
      "type": "SCALAR"
    },
    {
      "bufferView": 2,
      "byteOffset": 3145584,
      "componentType": 5126,
      "count": 26715,
      "max": [
        16.037734985351563,
        13.540257453918457,
        11.002120018005371
      ],
      "min": [
        -11.473100662231445,
        -6.208061218261719,
        0.7335433959960938
      ],
      "type": "VEC3"
    },
    {
      "bufferView": 2,
      "byteOffset": 3466164,
      "componentType": 5126,
      "count": 26715,
      "max": [
        0.9999951124191284,
        0.9999986886978149,
        0.9999241232872009
      ],
      "min": [
        -0.9999907612800598,
        -1.0,
        -0.9999378323554993
      ],
      "type": "VEC3"
    },
    {
      "bufferView": 1,
      "byteOffset": 1048528,
      "componentType": 5126,
      "count": 26715,
      "max": [
        0.9993985295295715,
        0.9823869466781616
      ],
      "min": [
        0.0005870962049812078,
        0.0005876333452761173
      ],
      "type": "VEC2"
    },
    {
      "bufferView": 0,
      "byteOffset": 1502376,
      "componentType": 5125,
      "count": 56535,
      "type": "SCALAR"
    }
  ],
  "asset": {
    "extras": {
      "author": "Shahriar Shahrabi (https://sketchfab.com/shahriyarshahrabi)",
      "license": "CC-BY-4.0 (http://creativecommons.org/licenses/by/4.0/)",
      "source": "https://sketchfab.com/3d-models/winter-house-05e24d513635445380813a3ce15206db",
      "title": "Winter House"
    },
    "generator": "Sketchfab-15.36.0",
    "version": "2.0"
  },
  "bufferViews": [
    {
      "buffer": 0,
      "byteLength": 1728516,
      "name": "floatBufferViews",
      "target": 34963
    },
    {
      "buffer": 0,
      "byteLength": 1262248,
      "byteOffset": 1728516,
      "byteStride": 8,
      "name": "floatBufferViews",
      "target": 34962
    },
    {
      "buffer": 0,
      "byteLength": 3786744,
      "byteOffset": 2990764,
      "byteStride": 12,
      "name": "floatBufferViews",
      "target": 34962
    }
  ],
  "buffers": [
    {
      "byteLength": 6777508,
      "uri": "scene.bin"
    }
  ],
  "extensionsUsed": [
    "KHR_materials_unlit"
  ],
  "images": [
    {
      "uri": "textures/Material.001_baseColor.jpeg"
    }
  ],
  "materials": [
    {
      "doubleSided": true,
      "extensions": {
        "KHR_materials_unlit": {}
      },
      "name": "Material.001",
      "pbrMetallicRoughness": {
        "baseColorTexture": {
          "index": 0
        },
        "metallicFactor": 0.0
      }
    }
  ],
  "meshes": [
    {
      "name": "vaclav_Chalupa_Model_8.001_Material.001_0",
      "primitives": [
        {
          "attributes": {
            "NORMAL": 1,
            "POSITION": 0,
            "TEXCOORD_0": 2
          },
          "indices": 3,
          "material": 0,
          "mode": 4
        }
      ]
    },
    {
      "name": "vaclav_Chalupa_Model_8.001_Material.001_0",
      "primitives": [
        {
          "attributes": {
            "NORMAL": 5,
            "POSITION": 4,
            "TEXCOORD_0": 6
          },
          "indices": 7,
          "material": 0,
          "mode": 4
        }
      ]
    },
    {
      "name": "vaclav_Chalupa_Model_8.001_Material.001_0",
      "primitives": [
        {
          "attributes": {
            "NORMAL": 9,
            "POSITION": 8,
            "TEXCOORD_0": 10
          },
          "indices": 11,
          "material": 0,
          "mode": 4
        }
      ]
    }
  ],
  "nodes": [
    {
      "children": [
        1
      ],
      "matrix": [
        1.0,
        0.0,
        0.0,
        0.0,
        0.0,
        2.220446049250313e-16,
        -1.0,
        0.0,
        0.0,
        1.0,
        2.220446049250313e-16,
        0.0,
        0.0,
        0.0,
        0.0,
        1.0
      ],
      "name": "Sketchfab_model"
    },
    {
      "children": [
        2
      ],
      "matrix": [
        0.009999999776482582,
        0.0,
        0.0,
        0.0,
        0.0,
        0.0,
        0.009999999776482582,
        0.0,
        0.0,
        -0.009999999776482582,
        0.0,
        0.0,
        0.0,
        0.0,
        0.0,
        1.0
      ],
      "name": "36bba475d0d1449cadf4099d565cfcc1.fbx"
    },
    {
      "children": [
        3
      ],
      "name": "RootNode"
    },
    {
      "children": [
        4,
        5,
        6
      ],
      "matrix": [
        100.0,
        0.0,
        0.0,
        0.0,
        0.0,
        -1.629206793918314e-05,
        -99.99999999999868,
        0.0,
        0.0,
        99.99999999999868,
        -1.629206793918314e-05,
        0.0,
        0.0,
        0.0,
        0.0,
        1.0
      ],
      "name": "vaclav_Chalupa_Model_8.001"
    },
    {
      "mesh": 0,
      "name": "vaclav_Chalupa_Model_8.001_Material.001_0"
    },
    {
      "mesh": 1,
      "name": "vaclav_Chalupa_Model_8.001_Material.001_0"
    },
    {
      "mesh": 2,
      "name": "vaclav_Chalupa_Model_8.001_Material.001_0"
    }
  ],
  "samplers": [
    {
      "magFilter": 9729,
      "minFilter": 9987,
      "wrapS": 10497,
      "wrapT": 10497
    }
  ],
  "scene": 0,
  "scenes": [
    {
      "name": "Sketchfab_Scene",
      "nodes": [
        0
      ]
    }
  ],
  "textures": [
    {
      "sampler": 0,
      "source": 0
    }
  ]
}
