<svg xmlns="http://www.w3.org/2000/svg" version="1.1" xmlns:xlink="http://www.w3.org/1999/xlink" xmlns:svgjs="http://svgjs.dev/svgjs" width="1000" height="1000" viewBox="0 0 1000 1000"><rect width="1000" height="1000" fill="#ffffff"></rect><g transform="matrix(0.7,0,0,0.7,150.05657326094195,250.65206754655108)"><svg viewBox="0 0 346 247" data-background-color="#5e1914" preserveAspectRatio="xMidYMid meet" height="713" width="1000" xmlns="http://www.w3.org/2000/svg" xmlns:xlink="http://www.w3.org/1999/xlink"><g id="tight-bounds" transform="matrix(1,0,0,1,-0.02796335469415112,-0.10000137046304758)"><svg viewBox="0 0 346.05592552730235 247.2" height="247.2" width="346.05592552730235"><g><svg viewBox="0 0 395.52 282.53393971225654" height="247.2" width="346.05592552730235"><g transform="matrix(1,0,0,1,0,209.65067991469618)"><svg viewBox="0 0 395.52 72.88325979756034" height="72.88325979756034" width="395.52"><g id="textblocktransform"><svg viewBox="0 0 395.52 72.88325979756034" height="72.88325979756034" width="395.52" id="textblock"><g><svg viewBox="0 0 395.52 72.88325979756034" height="72.88325979756034" width="395.52"><g transform="matrix(1,0,0,1,0,0)"><svg width="395.52" viewBox="2.049999952316284 -34.900001525878906 192.63999938964844 35.5" height="72.88325979756034" data-palette-color="#ed1703"><path d="M13.6 0.6Q8.5 0.6 5.28-1.9 2.05-4.4 2.05-9.7L2.05-9.7 2.1-10.7 6.65-10.7 6.6-9.65Q6.6-6.6 8.47-5.03 10.35-3.45 13.4-3.45L13.4-3.45Q16.85-3.45 18.73-4.93 20.6-6.4 20.6-9.15L20.6-9.15Q20.6-11 19.58-12.18 18.55-13.35 17.03-14.05 15.5-14.75 12.85-15.6L12.85-15.6Q9.6-16.7 7.6-17.7 5.6-18.7 4.17-20.63 2.75-22.55 2.75-25.7L2.75-25.7Q2.75-30.2 5.8-32.55 8.85-34.9 13.65-34.9L13.65-34.9Q18.45-34.9 21.43-32.52 24.4-30.15 24.4-25.25L24.4-25.25 24.4-24.65 19.85-24.65 19.85-25.4Q19.85-27.95 18.13-29.4 16.4-30.85 13.75-30.85L13.75-30.85Q10.9-30.85 9.15-29.63 7.4-28.4 7.4-26.05L7.4-26.05Q7.4-24.3 8.4-23.18 9.4-22.05 10.9-21.38 12.4-20.7 15-19.85L15-19.85Q18.3-18.75 20.33-17.78 22.35-16.8 23.78-14.88 25.2-12.95 25.2-9.9L25.2-9.9Q25.2-4.4 22.08-1.9 18.95 0.6 13.6 0.6L13.6 0.6ZM42.15 0.6Q36.8 0.6 33.82-2.43 30.85-5.45 30.85-11.15L30.85-11.15 30.85-34.3 35.25-34.3 35.25-10.9Q35.25-7.3 37.07-5.38 38.9-3.45 42.15-3.45L42.15-3.45Q45.4-3.45 47.22-5.38 49.05-7.3 49.05-10.9L49.05-10.9 49.05-34.3 53.45-34.3 53.45-11.15Q53.45-5.45 50.47-2.43 47.5 0.6 42.15 0.6L42.15 0.6ZM60.45 0L60.45-34.3 64.85-34.3 64.85-4 78.85-4 78.85 0 60.45 0ZM83.24 0L83.24-34.3 104.39-34.3 104.39-30.3 87.64-30.3 87.64-19.55 102.19-19.55 102.19-15.55 87.64-15.55 87.64-4 104.69-4 104.69 0 83.24 0ZM110.19 0L110.19-34.3 116.89-34.3 122.94-11.8Q123.54-9.4 124.09-4.1L124.09-4.1 124.29-4.1Q124.79-9.5 125.39-11.8L125.39-11.8 131.49-34.3 138.14-34.3 138.14 0 133.74 0 133.74-24.9Q133.74-26.05 134.09-30.2L134.09-30.2 133.89-30.2Q133.09-26.05 132.74-24.9L132.74-24.9 125.89 0 121.94 0 115.09-24.9Q114.84-25.8 114.04-30.2L114.04-30.2 113.84-30.2Q114.14-25.85 114.14-24.9L114.14-24.9 114.14 0 110.19 0ZM141.19 0L152.09-34.3 157.74-34.3 168.64 0 163.89 0 161.54-7.65 147.94-7.65 145.59 0 141.19 0ZM149.14-11.65L160.29-11.65 155.64-26.9Q155.29-28 154.84-30.7L154.84-30.7 154.64-30.7Q154.19-27.95 153.84-26.9L153.84-26.9 149.14-11.65ZM172.09 0L172.09-34.3 175.89-34.3 188.64-12.75Q189.34-11.5 190.74-8.15L190.74-8.15 190.89-8.2Q190.74-11.7 190.74-12.75L190.74-12.75 190.74-34.3 194.69-34.3 194.69 0 191.04 0 178.19-21.85Q177.39-23.25 175.99-26.45L175.99-26.45 175.84-26.4Q176.03-23.2 176.03-21.85L176.03-21.85 176.03 0 172.09 0Z" opacity="1" transform="matrix(1,0,0,1,0,0)" fill="#000000" class="wordmark-text-0" data-fill-palette-color="primary" id="text-0"></path></svg></g></svg></g></svg></g></svg></g><g transform="matrix(1,0,0,1,110.14064848262076,0)"><svg viewBox="0 0 175.23870303475846 175.23870303475846" height="175.23870303475846" width="175.23870303475846"><g><svg></svg></g><g id="icon-0"><svg viewBox="0 0 175.23870303475846 175.23870303475846" height="175.23870303475846" width="175.23870303475846"><g><path d="M0 87.619c0-48.391 39.229-87.619 87.619-87.619 48.391 0 87.619 39.229 87.62 87.619 0 48.391-39.229 87.619-87.62 87.62-48.391 0-87.619-39.229-87.619-87.62zM87.619 168.666c44.761 0 81.047-36.286 81.047-81.047 0-44.761-36.286-81.047-81.047-81.046-44.761 0-81.047 36.286-81.046 81.046 0 44.761 36.286 81.047 81.046 81.047z" data-fill-palette-color="tertiary" fill="#000000" stroke="transparent"></path></g><g transform="matrix(1,0,0,1,39.92599330812544,38.95265946712026)"><svg viewBox="0 0 95.38671641850758 97.33338410051793" height="97.33338410051793" width="95.38671641850758"><g><svg xmlns="http://www.w3.org/2000/svg" xmlns:xlink="http://www.w3.org/1999/xlink" version="1.1" x="0" y="0" viewBox="0 0 98 100" enable-background="new 0 0 100 100" xml:space="preserve" height="97.33338410051793" width="95.38671641850758" class="icon-s-0" data-fill-palette-color="accent" id="s-0"><g fill="#ff908b" data-fill-palette-color="accent"><circle cx="49.494" cy="6.603" r="2.1" fill="#000000" data-fill-palette-color="accent"></circle><path d="M18.267 34.851l6.123-7.465c0.518-0.63 0.425-1.56-0.204-2.076-0.629-0.517-1.56-0.424-2.076 0.204l-6.972 8.499c-0.481 0.586-0.439 1.443 0.098 1.979l7.593 7.591c0.288 0.289 0.665 0.433 1.042 0.433 0.378 0 0.755-0.144 1.043-0.433 0.576-0.576 0.576-1.51 0-2.086L18.267 34.851z" fill="#000000" data-fill-palette-color="accent"></path><path d="M44.093 32.998L36.5 25.406c-0.576-0.576-1.509-0.576-2.086 0-0.576 0.577-0.576 1.511 0 2.087l6.647 6.646-6.123 7.465c-0.516 0.63-0.424 1.56 0.206 2.077 0.274 0.225 0.605 0.334 0.935 0.334 0.427 0 0.851-0.185 1.142-0.54l6.97-8.499C44.671 34.39 44.63 33.534 44.093 32.998z" fill="#000000" data-fill-palette-color="accent"></path><path d="M88.568 0H9.432C4.491 0 0 4.02 0 8.96v55.608C0 69.51 4.491 74 9.432 74h31.279c0.159 2 0.311 8.268-0.323 10.369-1.163 1.729-13.49 5.365-24.164 7.854C15.56 92.379 15 92.854 15 93.537v4.992c0 0.813 0.835 1.471 1.647 1.471h64.707C82.166 100 83 99.342 83 98.529v-4.992c0-0.684-0.559-1.277-1.225-1.434-10.732-2.486-23.082-6.008-24.202-7.625C56.896 82.277 56.925 76 57.039 74h31.529C93.508 74 98 69.51 98 64.568V8.96C98 4.02 93.508 0 88.568 0zM80 94.703V97H18v-2.298c11-2.638 24.097-6.121 25.095-9.362C43.963 82.512 43.796 76 43.657 74h10.438c-0.104 2-0.188 8.514 0.682 11.343C55.773 88.583 69 92.064 80 94.703zM95 64.98c0 3.326-3.695 6.02-7.02 6.02H9.02C5.695 71 3 68.307 3 64.98V9.019C3 5.695 5.695 3 9.02 3h78.96C91.305 3 95 5.695 95 9.019V64.98z" fill="#000000" data-fill-palette-color="accent"></path><path d="M88.529 12H9.471C8.659 12 8 12.659 8 13.471v44.058C8 58.342 8.659 59 9.471 59h79.058C89.342 59 90 58.342 90 57.529V13.471C90 12.659 89.342 12 88.529 12zM11 15h37v41H11V15zM87 56H51V15h36V56z" fill="#000000" data-fill-palette-color="accent"></path><path d="M54.5 36h29c0.828 0 1.5-0.671 1.5-1.5v-16c0-0.829-0.672-1.5-1.5-1.5h-29c-0.828 0-1.5 0.671-1.5 1.5v16C53 35.329 53.672 36 54.5 36zM56 20h26v13H56V20z" fill="#000000" data-fill-palette-color="accent"></path><path d="M83 39H55c-0.828 0-1.5 0.671-1.5 1.5S54.172 42 55 42h28c0.828 0 1.5-0.671 1.5-1.5S83.828 39 83 39z" fill="#000000" data-fill-palette-color="accent"></path><path d="M83 45H55c-0.828 0-1.5 0.671-1.5 1.5S54.172 48 55 48h28c0.828 0 1.5-0.671 1.5-1.5S83.828 45 83 45z" fill="#000000" data-fill-palette-color="accent"></path><path d="M83 51H55c-0.828 0-1.5 0.672-1.5 1.5S54.172 54 55 54h28c0.828 0 1.5-0.672 1.5-1.5S83.828 51 83 51z" fill="#000000" data-fill-palette-color="accent"></path></g></svg></g></svg></g></svg></g></svg></g><g></g></svg></g><defs></defs></svg><rect width="346.05592552730235" height="247.2" fill="none" stroke="none" visibility="hidden"></rect></g></svg></g></svg>